<svg xmlns="http://www.w3.org/2000/svg" id="animatedLogo" version="1.1" viewBox="0 0 848.6 645.3" fill="#1A2027">
  <!-- Generator: Adobe Illustrator 29.7.0, SVG Export Plug-In . SVG Version: 2.1.1 Build 138)  -->
  <g>
    <rect x="112.3" y="492.7" width="62.6" height="142.6"/>
    <polygon points="544.1 368.9 410.5 319.3 410.4 319.3 435.2 252.7 568.9 302.3 544.1 368.9"/>
    <polygon points="633.1 492.7 681.7 492.7 681.7 635.3 633.1 635.3 633.1 635.3 517.1 635.3 540.8 377.8 406.4 523 273.3 383.5 300.5 635.3 174.9 635.3 174.9 492.7 181.8 492.7 179 490.5 179 490.5 116.5 440.7 205.4 329.2 267.9 379 272.6 382.7 267.3 365 319.9 349.3 267.3 365 247 297 383.7 256.2 404 324.2 403.9 324.2 406 331.2 410.5 319.3 544.1 369 540.9 377.8 556.9 366.4 556.9 366.4 613.4 326.2 696 442.5 639.4 482.7 639.5 482.7 625.4 492.7 633.1 492.7 633.1 492.7"/>
  </g>
  <g id="base">
    <polygon points="625.6 492.7 633.3 492.7 633.3 635.3 517.3 635.3 541.1 377.8 406.6 523 273.5 383.5 300.8 635.3 175.2 635.3 175.2 492.7 182 492.7 179.2 490.5 268.1 379 272.8 382.7 267.5 365 404.2 324.2 406.3 331.2 410.7 319.3 544.4 369 541.1 377.8 557.1 366.4 639.7 482.7 625.6 492.7"/>
  </g>
  <g id="r1">
    <rect id="rect1" x="633.3" y="492.7" width="78.8" height="142.6"/>
  </g>
  <g id="r2">
    <rect id="rect2" x="580.4" y="296.8" width="194.9" height="142.6" transform="translate(-88 460.4) rotate(-35.4)"/>
  </g>
  <g id="r3">
    <rect id="rect3" x="439.2" y="217.7" width="117.7" height="142.6" transform="translate(53.7 655.3) rotate(-69.6)"/>
  </g>
  <g id="l3">
    <rect id="rect4" x="229.6" y="105.3" width="142.6" height="244.4" transform="translate(-52.5 95.6) rotate(-16.6)"/>
  </g>
  <g id="l2">
    <rect id="rect5" x="97.3" y="320.3" width="142.6" height="141" transform="translate(-242.1 279) rotate(-51.4)"/>
  </g>
  <g id="l1">
    <rect id="rect6" x="50" y="492.7" width="125.1" height="142.6"/>
  </g>
</svg>