<svg width="1619" height="157" viewBox="0 0 1619 157" fill="none" xmlns="http://www.w3.org/2000/svg">
<path d="M214.145 4.31689V151.929H153.28V71.1384H144.621L134.226 151.929H78.794L68.3989 71.1384H59.7279V151.929H0V4.31689H95.1921L100.289 80.1324H108.939L114.044 4.31689H214.145Z" fill="#F5FF8C"/>
<path d="M366.509 4.31689H249.927L226.125 151.929H294.943L296.642 130.325H318.666L320.377 151.929H390.32L366.509 4.31689ZM299.583 93.0865L302.872 49.1149H312.428L315.922 93.0865H299.583Z" fill="#F5FF8C"/>
<path d="M533.601 107.287C533.601 125.338 528.491 137.29 517.538 144.874C506.329 152.639 488.639 156.251 461.879 156.251C442.574 156.251 423.84 154.359 403.062 150.319L405.143 96.9341C414.065 102.207 428.362 105.416 443.539 105.416C453.011 105.416 463.109 104.59 463.109 94.7569V92.9615H461.313C419.624 92.9615 402.617 80.0326 402.617 48.3187C402.617 13.5467 422.891 0.00537109 474.913 0.00537109C494.65 0.00537109 512.425 1.91827 529.196 5.87832L527.304 56.7884C519.518 51.8719 507.038 48.906 493.631 48.906C482.447 48.906 475.005 50.6763 475.005 59.3389V61.1343H476.801C517.148 61.1343 533.597 74.5079 533.597 107.296L533.601 107.287Z" fill="#F5FF8C"/>
<path d="M697.628 4.31689V151.929H630.521V103.972H612.567V151.929H545.473V4.31689H612.567V52.2737H630.521V4.31689H697.628Z" fill="#F5FF8C"/>
<path d="M789.553 0C734.075 0 709.324 24.0917 709.324 78.1228C709.324 132.154 734.075 156.245 789.553 156.245C845.031 156.245 869.794 132.154 869.794 78.1228C869.794 24.0917 845.044 0 789.553 0ZM789.553 103.46C781.058 103.46 779.443 94.5586 779.443 78.1228C779.443 61.6869 781.058 52.7852 789.553 52.7852C798.048 52.7852 799.671 61.6869 799.671 78.1228C799.671 94.5586 798.056 103.46 789.553 103.46Z" fill="#F5FF8C"/>
<path d="M961.694 0C906.203 0 881.453 24.0917 881.453 78.1228C881.453 132.154 906.203 156.245 961.694 156.245C1017.19 156.245 1041.92 132.154 1041.92 78.1228C1041.92 24.0917 1017.17 0 961.694 0ZM961.694 103.46C953.191 103.46 951.576 94.5586 951.576 78.1228C951.576 61.6869 953.191 52.7852 961.694 52.7852C970.198 52.7852 971.804 61.6869 971.804 78.1228C971.804 94.5586 970.189 103.46 961.694 103.46Z" fill="#F5FF8C"/>
<path d="M1191 99.2837L1192.14 98.4699C1203.13 90.6463 1207.82 78.4221 1207.82 57.5942C1207.82 18.2622 1191.58 4.31396 1145.74 4.31396H1053.4V151.926H1120.32V112.175H1129.73L1140.12 151.926H1210.99L1191 99.2795L1191 99.2837ZM1125.13 76.4631H1120.32V40.0382H1125.13C1135.68 40.0382 1139.78 45.1477 1139.78 58.257C1139.78 71.3662 1135.68 76.4631 1125.13 76.4631Z" fill="#F5FF8C"/>
<path d="M1290.4 4.31689H1223.3V151.929H1290.4V4.31689Z" fill="#F5FF8C"/>
<path d="M1466.62 4.31689L1418.64 111.867V151.929H1350.78V111.439L1303 4.31689H1377.39L1381.16 53.7797H1389.78L1393.56 4.31689H1466.62Z" fill="#F5FF8C"/>
<path d="M1595.19 4.31689H1478.61L1454.8 151.929H1523.62L1525.32 130.325H1547.35L1549.06 151.929H1619L1595.2 4.31689H1595.19ZM1528.25 93.0865L1531.56 49.1149H1541.11L1544.61 93.0865H1528.25Z" fill="#F5FF8C"/>
</svg>
